<svg width="655" height="655" viewBox="0 0 655 655" fill="none" xmlns="http://www.w3.org/2000/svg">
<circle cx="327.5" cy="327.5" r="327.5" fill="#00658E"/>
<path d="M312.933 64.2654C303.144 64.9628 294.278 65.9669 286.221 67.3058C284.315 67.6406 282.062 68.0032 281.225 68.1426C272.503 69.5652 256.967 73.5818 244.78 77.5706C215.901 87.0264 186.763 103.009 161.61 123.204C150 132.52 135.301 146.886 125.194 158.796C117.656 167.666 107.231 182.477 100.907 193.244C100.185 194.472 99.0297 196.48 98.3078 197.707C91.4347 209.45 83.984 225.712 78.8725 240.105C74.5407 252.378 70.4688 267.887 67.9275 282.085C65.6461 294.664 64 314.552 64 328.918C64.0578 357.703 67.2922 379.962 75.1183 405.792C78.1216 415.694 80.1142 421.021 84.3016 430.338C90.4817 444.173 93.8316 450.756 99.7517 460.742C105.672 470.755 108.213 474.353 120.284 489.89C127.186 498.76 129.67 501.633 135.33 507.323C137.467 509.499 142.001 514.046 145.38 517.449C156.7 528.829 172.352 540.935 189.477 551.59C221.706 571.59 255.869 583.723 294.451 588.911C296.761 589.218 299.563 589.581 300.66 589.748C313.02 591.422 337.913 591.422 353.652 589.72C361.767 588.856 373.752 586.847 382.098 584.979C404.796 579.846 421.517 574.212 439.855 565.453C458.366 556.639 472.95 547.769 488.371 535.942C500.269 526.821 504.485 522.999 518.029 509.276C520.628 506.626 521.321 505.901 525.335 501.438C526.317 500.378 528.859 497.365 530.996 494.771C547.456 474.744 559.181 456 569.144 433.824C578.125 413.825 583.786 394.411 588.146 368.415C590.341 355.5 591.525 332.767 590.774 318.625C590.226 307.97 589.735 301.973 589.013 296.31C588.868 295.167 588.608 293.158 588.435 291.847C586.731 278.821 581.649 257.427 577.086 243.982C572.523 230.538 567.902 219.771 560.885 206.215C555.86 196.508 552.914 191.431 547.196 182.645C531.429 158.378 510.954 136.23 487.649 118.183C468.271 103.177 443.782 89.4531 421.806 81.2525C416.896 79.4394 405.894 75.897 398.847 73.8887C390.299 71.4619 376.524 68.4774 367.947 67.1663C366.359 66.9432 364.28 66.6085 363.327 66.469C356.915 65.4927 349.465 64.7396 340.946 64.2375C335.17 63.9028 317.872 63.9307 312.933 64.2654ZM332.138 84.8786C345.653 85.9944 357.609 90.1505 369.997 98.0443C400.204 117.263 418.34 152.046 416.348 186.829C415.481 201.835 412.333 213.327 405.143 227.776L403.208 231.626L412.189 240.3L421.199 248.975L423.885 247.859C434.685 243.257 444.302 240.663 455.305 239.352C460.012 238.794 473.296 238.878 478.119 239.519C486.436 240.579 493.829 242.448 501.799 245.461C517.278 251.318 533.537 262.894 543.962 275.53C551.008 284.037 557.853 295.752 561.116 304.846C566.516 319.824 567.18 333.715 563.253 349.447C559.094 366.267 548.438 383.114 534.317 395.276C530.967 398.149 530.071 398.846 525.191 402.361C514.766 409.892 499.922 416.028 485.252 418.901C477.917 420.324 464.459 420.742 457.182 419.794C444.418 418.065 434.454 415.136 423.567 409.836L420.564 408.386L411.929 416.726L403.294 425.066L405.287 429.083C410.687 440.017 414.211 451.09 415.568 461.355C416.983 471.983 416.579 484.144 414.442 494.214C410.63 512.233 400.84 529.945 387.151 543.529C378.834 551.785 372.077 556.75 362.72 561.492C349.696 568.047 336.152 570.864 321.626 570C309.93 569.275 300.862 566.932 290.35 561.827C277.99 555.858 265.775 545.872 257.053 534.687C248.765 524.004 243.249 513.265 239.582 500.573C236.925 491.341 235.828 483.726 235.828 474.353C235.828 458.789 239.38 444.926 247.581 428.218L249.314 424.675L240.766 416.419L232.189 408.135L228.319 409.92C220.551 413.49 215.613 415.247 208.249 417.088C193.925 420.659 178.879 420.938 164.497 417.869C154.823 415.833 144.254 411.761 135.186 406.601C123.114 399.739 111.794 389.586 103.766 378.456C99.8672 373.045 95.2177 364.844 93.3118 360.047C88.2003 347.132 86.1788 333.91 87.536 322.251C89.2399 307.774 95.0445 293.577 104.719 280.272C115.288 265.711 130.652 253.717 148.037 246.437C168.569 237.846 191.586 236.395 213.476 242.364C218.183 243.62 220.897 244.568 226.586 246.939C229.214 247.999 231.467 248.892 231.64 248.892C231.813 248.892 235.828 245.126 240.564 240.551L249.198 232.211L248.736 231.123C248.505 230.538 247.697 228.836 246.975 227.358C241.257 215.615 238.311 206.075 236.492 193.384C235.799 188.363 235.77 175.058 236.492 170.372C237.734 162.143 239.033 156.843 241.574 149.452C243.134 144.821 244.433 141.921 247.61 135.923C255.552 120.805 266.959 108.281 281.311 98.7974C294.191 90.3178 306.436 86.078 321.741 84.795C324.283 84.5718 328.845 84.6276 332.138 84.8786ZM405.778 96.3986C419.178 101.28 432.606 107.472 444.042 114.027C451.377 118.267 462.438 125.519 468.878 130.373C470.553 131.656 473.21 133.608 474.798 134.78C480.66 139.02 484.501 142.367 492.414 149.954C507.257 164.207 515.459 173.775 527.155 190.427C530.851 195.643 534.577 201.529 538.186 207.749C540.006 210.873 545.637 222.086 547.861 226.995C553.607 239.687 556.813 248.027 559.354 256.841C561 262.559 562.242 267.496 562.098 267.915C562.011 268.11 561.174 267.245 560.163 266.046C557.304 262.503 551.066 256.088 546.908 252.322C535.356 241.974 522.852 234.247 508.441 228.585C488.342 220.719 467.203 218.627 445.486 222.393C441.472 223.09 432.808 225.21 429.372 226.326C426.022 227.414 425.762 227.386 426.282 226.214C428.159 221.835 431.047 212.491 432.202 207.079C434.281 197.205 434.974 189.283 434.714 178.321C434.483 168.447 433.646 161.976 431.624 154.054C427.466 137.96 418.6 120.749 407.8 107.751C403.785 102.926 397.836 96.5381 395.468 94.5855C394.544 93.8045 393.793 92.9956 393.793 92.8282C393.793 92.4377 399.858 94.2508 405.778 96.3986ZM254.801 96.5938C247.206 103.623 239.235 113.692 233.315 123.79C222.226 142.702 217.028 161.278 217.056 181.892C217.085 196.508 219.309 208.837 224.449 222.895C225.171 224.931 225.72 226.688 225.605 226.772C225.518 226.884 223.699 226.437 221.59 225.796C207.642 221.612 194.3 219.938 180.872 220.663C167.501 221.417 157.711 223.425 145.438 227.944C132.413 232.769 118.523 241.109 107.058 251.011C104.892 252.88 102.611 254.944 102.004 255.614C101.369 256.283 99.7806 257.929 98.481 259.268C97.1815 260.607 95.2177 262.754 94.1492 264.093C93.0807 265.404 92.07 266.464 91.9256 266.464C91.6079 266.464 91.6368 266.325 93.6294 259.352C99.1741 239.966 107.867 220.329 118.985 202.17C131.258 182.059 144.109 166.243 162.014 149.201C169.205 142.367 171.082 140.777 181.103 133.106C199.527 118.964 217.345 108.56 236.261 100.834C242.441 98.3232 256.447 93.5256 257.602 93.5256C257.949 93.5256 257.024 94.5576 254.801 96.5938ZM562.733 393.044C562.733 393.797 560.856 400.241 559.066 405.652C557.246 411.203 554.07 419.32 551.499 424.982C549.911 428.469 544.309 439.515 542.894 441.913C542.576 442.443 541.45 444.452 540.352 446.376C535.472 455.023 528.165 466.041 521.35 475.107C511.965 487.547 505.265 494.967 494.58 504.841C491.432 507.742 489.988 508.997 481.267 516.584C474.48 522.47 463.333 530.335 451.06 537.95C439.537 545.091 424.809 552.036 410.081 557.336C404.912 559.205 396.133 561.855 395.151 561.855C394.92 561.855 396.45 560.153 398.587 558.089C408.175 548.689 416.492 537.392 422.672 525.315C426.946 516.919 430.729 506.487 432.317 498.676C434.281 488.997 434.945 481.355 434.714 471.062C434.397 457.478 432.173 445.986 427.581 434.271C426.946 432.597 426.455 431.202 426.513 431.119C426.571 431.063 428.361 431.593 430.498 432.262C450.309 438.65 470.264 439.849 490.825 435.889C493.684 435.331 500.615 433.462 504.398 432.234C516.961 428.162 530.389 421.133 540.381 413.406C548.294 407.298 556.12 400.046 560.278 394.969C562.3 392.486 562.733 392.152 562.733 393.044ZM93.6872 395.666C97.5569 400.52 105.787 408.274 112.227 413.072C134.377 429.613 158.895 438.008 185.175 438.008C198.343 438.008 210.212 436.056 222.948 431.816C224.449 431.314 225.778 430.979 225.864 431.091C225.98 431.175 225.922 431.481 225.749 431.788C224.709 433.518 222.341 440.491 220.666 446.795C216.537 462.136 215.901 478.789 218.847 495.19C220.031 501.801 222.515 510.169 225.402 517.142C231.12 531.005 241.372 546.095 252.462 557.029C255.465 560.014 256.36 561.018 255.898 561.018C254.223 561.018 242.296 556.834 233.893 553.32C214.169 545.035 196.899 534.631 176.482 518.788C173.796 516.696 168.656 512.093 163.025 506.766C149.712 494.158 150.058 494.52 139.402 481.522C131.894 472.345 127.215 466.013 121.671 457.478C113.498 444.898 106.74 432.374 101.918 420.993C99.203 414.494 95.882 405.931 94.7557 402.444C94.1781 400.603 93.3984 398.177 92.9941 397.033C92.6187 395.917 92.301 394.885 92.301 394.746C92.301 394.216 92.7919 394.551 93.6872 395.666Z" fill="white"/>
</svg>
